<svg width="78" height="62" fill="none" xmlns="http://www.w3.org/2000/svg">
  <path fill-rule="evenodd" clip-rule="evenodd" d="M0 45.88a16.13 16.13 0 1132.25 0 16.13 16.13 0 01-32.25 0zm10.96 5.16a7.3 7.3 0 1010.33-10.33 7.3 7.3 0 00-10.33 10.33zm49.9-5.17a8.06 8.06 0 100 16.13 8.06 8.06 0 000-16.13zm-5.07 8.07a5.06 5.06 0 1010.13 0 5.06 5.06 0 00-10.13 0z" fill="#fff"/>
  <path fill-rule="evenodd" clip-rule="evenodd" d="M75.44 31.31l2.46 18.42s.74 3.15-2.9 3.15h-1.95a12.22 12.22 0 00-24.39 0H38.5A23.44 23.44 0 003.05 26.43C3 23.45 3 12.52 5.3 6.16c0 0 1.07-2.54 3.44-3.17 2.38-.63 24.75-3 24.75-3s2.31.06 3.13 1.88c.8 1.8 10.56 21.87 10.56 21.87L59 25.13v-5.3h4V14h3v11.95l5.81.68s3.08.54 3.63 4.68zM16.13 19.83h6.95V6.17h-6.95v13.66zm16.95 0h-6.95V6.17h6.95v13.66zM49 36h4.02v-7H49v7zm11.02 0H56v-7h4.02v7zM63 36h4.02v-7H63v7z" fill="#fff"/>
</svg>
