<svg width="26" height="15" fill="none" xmlns="http://www.w3.org/2000/svg">
  <path d="M15.54 11.73c.92-.3 2.1 1.91 3.35 2.75.95.64 1.67.5 1.67.5l3.34-.04s1.75-.1.92-1.46c-.07-.11-.48-1-2.49-2.83-2.1-1.92-1.8-1.6.72-4.92C24.58 3.71 25.2 2.48 25 1.95c-.19-.5-1.32-.37-1.32-.37l-3.77.03c-.36 0-.67.1-.82.48 0 0-.6 1.56-1.39 2.89-1.67 2.8-2.34 2.95-2.62 2.77-.64-.4-.48-1.63-.48-2.5 0-2.71.42-3.84-.81-4.14-.41-.1-.71-.16-1.76-.17-1.34-.02-2.48 0-3.12.31-.43.21-.76.67-.56.7.25.03.8.14 1.11.54.39.52.37 1.68.37 1.68s.22 3.2-.52 3.6c-.5.27-1.2-.29-2.7-2.83-.76-1.3-1.34-2.74-1.34-2.74s-.1-.27-.3-.42c-.25-.17-.59-.22-.59-.22l-3.57.02s-.54.01-.74.24c-.17.2-.01.63-.01.63s2.8 6.45 5.97 9.7c2.9 2.98 6.21 2.79 6.21 2.79h1.5s.45-.05.68-.3c.22-.22.21-.64.21-.64s-.03-1.98.9-2.27z" fill="#fff"/>
</svg>
