<svg width="138" height="23" fill="none" xmlns="http://www.w3.org/2000/svg">
  <path fill-rule="evenodd" clip-rule="evenodd" d="M132.7 3.4v18.9H130V3.4h-4.8V1.3h12.3v2.1h-4.8zM122.3 14.5a3.86 3.86 0 01-1.77 1.26c-.71.25-1.56.38-2.54.38a15.32 15.32 0 01-3-.3v6.45h-2.7V1.6c.76-.22 1.53-.38 2.3-.47.77-.09 1.6-.13 2.5-.13 1.2 0 2.22.12 3.06.37.84.25 1.52.67 2.04 1.25s.9 1.35 1.14 2.3a15 15 0 01.36 3.58c0 1.46-.11 2.68-.34 3.66a5.9 5.9 0 01-1.05 2.35zm-1.53-8.71a4.22 4.22 0 00-.7-1.71 2.55 2.55 0 00-1.22-.89 5.37 5.37 0 00-1.76-.25H115v11.1h2.1c.68 0 1.27-.09 1.76-.26s.9-.46 1.21-.88c.32-.42.56-1 .7-1.71.16-.72.23-1.62.23-2.7s-.07-1.98-.22-2.7zm-15.23 11.1h-6l-1.35 5.4h-2.7l5.1-21h3.9l5.1 21h-2.7l-1.35-5.4zM102.6 4.3h-.12L100 14.8h5.1L102.6 4.3zM89.64 6.7h-.15l-4.35 12.9h-2.7L78.1 6.7h-.15l-.9 15.6h-2.7l1.2-21h3.3l4.9 14.4h.11l4.9-14.4h3.3l1.2 21h-2.7l-.9-15.6zM69.48 20.35a4.71 4.71 0 01-2.02 1.74c-.8.34-1.7.5-2.72.5a6.81 6.81 0 01-2.71-.5A4.71 4.71 0 0160 20.35a9.22 9.22 0 01-1.27-3.32 26.26 26.26 0 01-.44-5.23c0-2.1.15-3.85.44-5.24.29-1.39.71-2.5 1.27-3.31a4.71 4.71 0 012.03-1.74c.79-.34 1.7-.51 2.71-.51 1.02 0 1.93.17 2.72.5.79.35 1.46.93 2.02 1.75s.99 1.92 1.28 3.31c.29 1.4.43 3.14.43 5.24s-.14 3.84-.43 5.23a9.22 9.22 0 01-1.28 3.32zm-1.3-13a10.48 10.48 0 00-.83-2.75 3.18 3.18 0 00-1.2-1.41 2.83 2.83 0 00-1.4-.4c-.49 0-.96.14-1.42.4-.46.26-.86.73-1.2 1.4-.34.69-.61 1.6-.82 2.77a25.69 25.69 0 00-.32 4.44c0 1.8.1 3.28.32 4.44.2 1.16.48 2.08.82 2.76.34.68.74 1.15 1.2 1.4.46.27.93.4 1.41.4.48 0 .95-.13 1.41-.4.46-.25.86-.72 1.2-1.4.34-.68.62-1.6.83-2.76.2-1.16.31-2.64.31-4.44 0-1.8-.1-3.28-.31-4.44zM51.99 12.7h-6.3v9.6H43v-21h2.7v9.3H52V1.3h2.7v21H52v-9.6zm-14.25 9.6l-3.75-9-3.75 9h-2.7l4.5-10.8L28 1.3h2.7L34 9.7l3.3-8.4H40l-4.05 10.2 4.5 10.8h-2.7zM15.7 1.3h10.2v2.1h-7.5v6.9H25v2.1h-6.6v7.8h7.5v2.1H15.7v-21zm-7.2 21H5.8V3.4H1V1.3h12.3v2.1H8.5v18.9z" fill="#fff"/>
</svg>
