<svg width="70" height="70" fill="none" xmlns="http://www.w3.org/2000/svg">
    <mask id="a" maskUnits="userSpaceOnUse" x="0" y="0" width="70" height="70">
    <path fill="#C4C4C4" d="M0 0h70v70H0z"/></mask>
    <g mask="url(#a)"><path fill="#EE3643" d="M22.21-23l70.71 70.7-21.21 21.22L1-1.78z"/>
    <path d="M34.45 19.11l6.93-6.93 1 .99-2.88 6.93.05.05 4.9-4.9.9.89-6.94 6.93-.99-1 2.87-6.92-.05-.05-4.9 4.9-.89-.89zm5.35 5.35l6.93-6.93 3.36 3.36-.69.7-2.47-2.48-2.28 2.28 2.18 2.17-.7.7-2.17-2.18-2.58 2.57 2.48 2.48-.7.7-3.36-3.37zm5.1 5.1l5.79-8.07.9.89-4.46 6.24.05.04 5.14-2.96.9.89-2.98 5.14.05.05 6.24-4.45.9.89-8.08 5.8-1.09-1.1 3.04-5.27-.04-.04L46 30.64l-1.1-1.08z" fill="#fff"/></g></svg>